<svg version="1.1" width="75.000000" height="75.000000" viewBox="0.000000 0.000000 75.000000 75.000000" xmlns="http://www.w3.org/2000/svg" xmlns:xlink="http://www.w3.org/1999/xlink" id="Product_Icon" overflow="hidden"><defs><linearGradient x1="37.500000" y1="112.500000" x2="37.500000" y2="-37.500000" gradientUnits="userSpaceOnUse" id="PinkGradient" gradientTransform="matrix(0.707107,0.707107,-0.707107,0.707107,37.500000,-15.530000)"><stop offset="0.000000" stop-color="#B0084D"/><stop offset="1.000000" stop-color="#FF4F8B"/></linearGradient></defs><rect x="0.000000" y="0.000000" width="75.000000" height="75.000000" id="Pink_Gradient" fill="url(#PinkGradient)"/><g id="Icon_Test"><path d=" M 62.500000 35.000000 C 62.572475 39.276329 59.268620 42.853306 55.000000 43.119999 L 40.500000 43.119999 L 40.500000 41.119999 L 55.000000 41.119999 C 55.139999 41.119999 60.549999 40.520000 60.549999 34.990002 C 60.549999 30.350000 56.669998 29.190001 55.009998 28.900000 C 54.470947 28.808113 54.105667 28.300283 54.189999 27.760000 C 54.189999 25.760000 53.349998 24.330000 51.880001 23.850000 C 50.542805 23.390347 49.062199 23.856838 48.230000 25.000000 C 48.000587 25.313036 47.610771 25.465063 47.230000 25.389999 C 46.867382 25.334627 46.564182 25.085161 46.439999 24.740000 C 45.939915 23.212646 45.106468 21.815599 44.000000 20.650000 C 41.393700 17.916973 37.351162 17.116470 33.900002 18.650000 C 31.944786 19.564192 30.383221 21.150599 29.500002 23.119999 L 27.299999 23.120001 C 28.314070 20.330379 30.397663 18.059658 33.090000 16.810001 C 37.288792 14.959490 42.196213 15.925800 45.380001 19.230001 C 46.370602 20.231180 47.182343 21.394678 47.780003 22.670002 C 49.139961 21.712729 50.875759 21.463696 52.450001 22.000002 C 54.621597 22.789389 56.078636 24.839594 56.110001 27.150002 C 59.330002 27.920000 62.500000 30.350000 62.500000 35.000000 Z M 34.500000 34.130001 L 34.500000 27.129999 L 14.500000 27.129999 L 14.500000 57.130001 L 34.500000 57.130001 L 34.500000 40.130001 L 36.500000 40.130001 L 36.500000 58.130001 C 36.500000 58.682285 36.052284 59.130001 35.500000 59.130001 L 13.500000 59.130001 C 12.947715 59.130001 12.500000 58.682285 12.500000 58.130001 L 12.500000 26.129999 C 12.500000 25.577715 12.947715 25.129999 13.500000 25.129999 L 35.500000 25.129999 C 36.052284 25.129999 36.500000 25.577715 36.500000 26.129999 L 36.500000 34.130001 Z M 47.500000 36.130001 L 17.500000 36.130001 L 17.500000 38.130001 L 47.500000 38.130001 Z M 25.500000 31.129999 L 17.500000 31.129999 L 17.500000 33.130001 L 25.500000 33.130001 Z M 28.500000 41.130001 L 17.500000 41.130001 L 17.500000 43.130001 L 28.500000 43.130001 Z M 24.410000 46.130001 L 17.540001 46.130001 L 17.540001 48.130001 L 24.410000 48.130001 Z M 31.500000 46.130001 L 26.500000 46.130001 L 26.500000 48.130001 L 31.500000 48.130001 Z M 53.500000 36.130001 L 49.500000 36.130001 L 49.500000 38.130001 L 53.500000 38.130001 Z" fill="#FFFFFF"/></g></svg>